<svg xmlns="http://www.w3.org/2000/svg" xmlns:xlink="http://www.w3.org/1999/xlink" viewBox="0 0 42.74 13.56"><defs><style>.cls-1{fill:url(#radial-gradient);}.cls-2{fill:url(#radial-gradient-2);}.cls-3{fill:url(#radial-gradient-3);}.cls-4{fill:url(#radial-gradient-4);}.cls-5{fill:url(#radial-gradient-5);}.cls-6{fill:url(#radial-gradient-6);}.cls-7{fill:url(#radial-gradient-7);}.cls-8{fill:url(#radial-gradient-8);}.cls-9{fill:url(#radial-gradient-9);}.cls-10{fill:url(#radial-gradient-10);}.cls-11{fill:url(#radial-gradient-11);}</style><radialGradient id="radial-gradient" cx="18.73" cy="9.18" r="1.47" gradientUnits="userSpaceOnUse"><stop offset="0" stop-color="#ffeea6"/><stop offset="0.21" stop-color="#ffeda2"/><stop offset="0.43" stop-color="#ffeb96"/><stop offset="0.64" stop-color="#ffe782"/><stop offset="0.86" stop-color="#ffe265"/><stop offset="1" stop-color="#ffde4e"/></radialGradient><radialGradient id="radial-gradient-2" cx="7.21" cy="7.74" r="1.47" xlink:href="#radial-gradient"/><radialGradient id="radial-gradient-3" cx="24.97" cy="11.1" r="1.47" xlink:href="#radial-gradient"/><radialGradient id="radial-gradient-4" cx="32.65" cy="10.14" r="1.47" xlink:href="#radial-gradient"/><radialGradient id="radial-gradient-5" cx="38.89" cy="4.38" r="1.47" xlink:href="#radial-gradient"/><radialGradient id="radial-gradient-6" cx="29.77" cy="1.5" r="1.47" xlink:href="#radial-gradient"/><radialGradient id="radial-gradient-7" cx="19.21" cy="1.5" r="1.47" xlink:href="#radial-gradient"/><radialGradient id="radial-gradient-8" cx="7.69" cy="2.46" r="1.47" xlink:href="#radial-gradient"/><radialGradient id="radial-gradient-9" cx="1.45" cy="5.34" r="1.47" xlink:href="#radial-gradient"/><radialGradient id="radial-gradient-10" cx="12.97" cy="12.06" r="1.47" xlink:href="#radial-gradient"/><radialGradient id="radial-gradient-11" cx="41.29" cy="8.22" r="1.47" xlink:href="#radial-gradient"/></defs><title>particlesAsset 2</title><g id="Layer_2" data-name="Layer 2"><g id="Layer_1-2" data-name="Layer 1"><path class="cls-1" d="M18.73,10.68a1.5,1.5,0,0,0,0-3,1.5,1.5,0,0,0,0,3Z"/><path class="cls-2" d="M7.21,9.24a1.5,1.5,0,0,0,0-3,1.5,1.5,0,0,0,0,3Z"/><path class="cls-3" d="M25,12.6a1.5,1.5,0,0,0,0-3,1.5,1.5,0,0,0,0,3Z"/><path class="cls-4" d="M32.65,11.64a1.5,1.5,0,0,0,0-3,1.5,1.5,0,0,0,0,3Z"/><path class="cls-5" d="M38.89,5.88a1.5,1.5,0,0,0,0-3,1.5,1.5,0,0,0,0,3Z"/><path class="cls-6" d="M29.77,3a1.5,1.5,0,0,0,0-3,1.5,1.5,0,0,0,0,3Z"/><path class="cls-7" d="M19.21,3a1.5,1.5,0,0,0,0-3,1.5,1.5,0,0,0,0,3Z"/><path class="cls-8" d="M7.69,4a1.5,1.5,0,0,0,0-3,1.5,1.5,0,0,0,0,3Z"/><path class="cls-9" d="M1.45,6.84a1.5,1.5,0,0,0,0-3,1.5,1.5,0,0,0,0,3Z"/><path class="cls-10" d="M13,13.56a1.5,1.5,0,0,0,0-3,1.5,1.5,0,0,0,0,3Z"/><path class="cls-11" d="M41.29,9.72a1.5,1.5,0,0,0,0-3,1.5,1.5,0,0,0,0,3Z"/></g></g></svg>