<svg xmlns="http://www.w3.org/2000/svg" viewBox="0 0 110 235.35"><defs><style>.cls-1{fill:#cdedea;}.cls-2{fill:#b3cecb;}.cls-3{fill:#ef4538;}.cls-4{fill:#ce3932;}.cls-5{fill:#fc675b;}.cls-6{fill:#9db2af;}.cls-7,.cls-8{fill:#fff;}.cls-7{opacity:0.53;}.cls-9{font-size:15px;font-family:Montserrat-Medium, Montserrat;font-weight:500;}.cls-10{letter-spacing:-0.01em;}.cls-11{letter-spacing:-0.01em;}.cls-12{letter-spacing:-0.01em;}.cls-13{letter-spacing:0em;}.cls-14{letter-spacing:-0.01em;}.cls-15{letter-spacing:0em;}.cls-16{letter-spacing:0em;}</style></defs><title>ethyl alcoholAsset 12</title><g id="Layer_2" data-name="Layer 2"><g id="Layer_1-2" data-name="Layer 1"><path class="cls-1" d="M71.13,26.81v-.64a13,13,0,0,0-13-13H51.84a13,13,0,0,0-13,13v.64a12.94,12.94,0,0,1-4.45,9.77l-30,26.11A12.94,12.94,0,0,0,0,72.46V222.38a13,13,0,0,0,13,13H97a13,13,0,0,0,13-13V72.46a12.94,12.94,0,0,0-4.45-9.77l-30-26.11A12.94,12.94,0,0,1,71.13,26.81Z"/><path class="cls-2" d="M105.55,62.69l-30-26.11a12.94,12.94,0,0,1-4.45-9.77v-.64a13,13,0,0,0-13-13h-2.1a13,13,0,0,1,3.24,8.57v.64a13,13,0,0,0,4.45,9.78l30,26.1a13,13,0,0,1,4.45,9.78V218a13,13,0,0,1-13,13h-82a12.9,12.9,0,0,0,9.72,4.4H97a13,13,0,0,0,13-13V72.46A12.94,12.94,0,0,0,105.55,62.69Z"/><rect class="cls-3" x="36.09" y="11.6" width="37.82" height="18.7"/><polygon class="cls-3" points="29.75 11.6 80.25 11.6 76.34 0 34.11 0 29.75 11.6"/><polygon class="cls-4" points="36.09 11.6 73.91 11.6 73.91 30.29 68.84 30.29 65.5 17.96 36.09 13.21 36.09 11.6"/><path class="cls-5" d="M37.27,3.81c-.35.72-.71,1.44-1.07,2.15a5.18,5.18,0,0,0-.58,1.61,1.73,1.73,0,0,0,.52,1.55,2.12,2.12,0,0,0,.9.38,13.15,13.15,0,0,0,4,0,3.29,3.29,0,0,0,1.4-.35,3.13,3.13,0,0,0,1.11-2l.78-2.84C45,2,43.52,1,41.24.88,39.34.81,38.06,2.24,37.27,3.81Z"/><path class="cls-5" d="M39.23,18a51.49,51.49,0,0,0,.07,8.33,2.36,2.36,0,0,0,.3,1.11,2.27,2.27,0,0,0,1,.75c1,.42,2.28.62,2.92-.23A2.49,2.49,0,0,0,44,26.81,29.16,29.16,0,0,0,44,17.58a2.64,2.64,0,0,0-.57-1.47C41.76,14.35,39.38,16.09,39.23,18Z"/><polygon class="cls-6" points="38.39 30.29 71.61 30.29 73.91 34.23 37.67 32.26 38.39 30.29"/><path class="cls-7" d="M18.53,57.91A10.52,10.52,0,0,0,16,61a3.86,3.86,0,0,0,.1,3.81c.86,1.21,2.49,1.55,4,1.74,4.87.61,10.33.37,14-2.94a20.13,20.13,0,0,0,3-3.76c3.16-4.69,6.35-9.45,8.2-14.79.88-2.52,1.29-7.5-2.61-7.75-2.91-.19-5.79,4.55-7.63,6.34C29.72,48.67,23.88,53,18.53,57.91Z"/><rect class="cls-8" x="3.04" y="117.48" width="104" height="37"/><text class="cls-9" transform="translate(38.01 131.04)">9<tspan class="cls-10" x="9.25" y="0">5</tspan><tspan x="17.71" y="0">% </tspan><tspan class="cls-11" x="-32.73" y="18">E</tspan><tspan x="-22.86" y="18">t</tspan><tspan class="cls-12" x="-16.65" y="18">h</tspan><tspan class="cls-13" x="-6.58" y="18">yl Al</tspan><tspan class="cls-14" x="25.18" y="18">c</tspan><tspan x="33.63" y="18">o</tspan><tspan class="cls-15" x="43.16" y="18">h</tspan><tspan class="cls-16" x="53.42" y="18">ol</tspan></text></g></g></svg>