<svg xmlns="http://www.w3.org/2000/svg" xmlns:xlink="http://www.w3.org/1999/xlink" viewBox="0 0 806.55 550"><defs><style>.cls-1{isolation:isolate;}.cls-2{fill:url(#linear-gradient);}.cls-15,.cls-3,.cls-4,.cls-5,.cls-8{opacity:0.5;}.cls-12,.cls-15,.cls-3,.cls-4,.cls-5,.cls-7{mix-blend-mode:multiply;}.cls-3{fill:url(#linear-gradient-2);}.cls-4{fill:url(#linear-gradient-3);}.cls-5{fill:url(#linear-gradient-4);}.cls-6,.cls-7,.cls-8{fill:#93460c;}.cls-14,.cls-8{mix-blend-mode:screen;}.cls-9{fill:url(#linear-gradient-5);}.cls-10{fill:#c1671b;}.cls-11{fill:url(#linear-gradient-6);}.cls-12,.cls-14{opacity:0.4;}.cls-13{fill:url(#linear-gradient-7);}.cls-14{fill:url(#linear-gradient-8);}.cls-15{fill:url(#linear-gradient-9);}.cls-16{fill:#fff;}</style><linearGradient id="linear-gradient" x1="403.28" y1="1.44" x2="403.28" y2="550.39" gradientUnits="userSpaceOnUse"><stop offset="0.1" stop-color="#cbcbcb"/><stop offset="1" stop-color="#a59988"/></linearGradient><linearGradient id="linear-gradient-2" x1="401.1" y1="17.69" x2="401.1" y2="484.22" xlink:href="#linear-gradient"/><linearGradient id="linear-gradient-3" x1="775.09" y1="428.65" x2="775.09" y2="549.8" xlink:href="#linear-gradient"/><linearGradient id="linear-gradient-4" x1="33.72" y1="419.66" x2="33.72" y2="549.81" xlink:href="#linear-gradient"/><linearGradient id="linear-gradient-5" x1="403.08" y1="400.18" x2="403.08" y2="552.68" gradientUnits="userSpaceOnUse"><stop offset="0" stop-color="#be6c2f"/><stop offset="0.43" stop-color="#ffc37a"/><stop offset="1" stop-color="#c67638"/></linearGradient><linearGradient id="linear-gradient-6" x1="3.25" y1="478.02" x2="806.55" y2="478.02" xlink:href="#linear-gradient-5"/><linearGradient id="linear-gradient-7" x1="3.25" y1="478.02" x2="806.32" y2="478.02" xlink:href="#linear-gradient-5"/><linearGradient id="linear-gradient-8" x1="29.27" y1="461.56" x2="480.67" y2="461.56" xlink:href="#linear-gradient-5"/><linearGradient id="linear-gradient-9" x1="404.03" y1="403.3" x2="404.03" y2="555.21" xlink:href="#linear-gradient-5"/></defs><title>bgAsset 9</title><g class="cls-1"><g id="Layer_2" data-name="Layer 2"><g id="Layer_1-2" data-name="Layer 1"><rect class="cls-2" x="0.69" width="805.18" height="549.63"/><rect class="cls-3" x="48.4" y="16.47" width="705.4" height="467.1"/><polygon class="cls-4" points="805.87 549.63 744.31 549.63 744.31 428.33 805.87 494.6 805.87 549.63"/><polygon class="cls-5" points="64.5 549.63 2.94 549.63 2.94 500.62 64.5 419.32 64.5 549.63"/><path class="cls-6" d="M37.33,535.8v0Z"/><path class="cls-7" d="M38.52,518.19a7.09,7.09,0,0,1-.83-.77,19.3,19.3,0,0,1-1.72-2,24.45,24.45,0,0,1-1.59-2.44c-.41-.72-.66-1.27-.66-1.27a9.35,9.35,0,0,1,.83.75,23.78,23.78,0,0,1,1.72,2.05,24.56,24.56,0,0,1,1.57,2.44A13.57,13.57,0,0,1,38.52,518.19Z"/><path class="cls-7" d="M75.73,518.2s.25-.57.67-1.3a28.23,28.23,0,0,1,1.6-2.47,23.07,23.07,0,0,1,1.74-2.09,6,6,0,0,1,.85-.78s-.26.57-.68,1.31-1,1.63-1.61,2.47a22.87,22.87,0,0,1-1.73,2.08A7.21,7.21,0,0,1,75.73,518.2Z"/><path class="cls-8" d="M40.13,512h28s-1.82,2.33-6.88,2.11S43.32,515.32,40.13,512Z"/><path class="cls-6" d="M104.45,526.5v0Z"/><path class="cls-7" d="M105.35,515.65a5.41,5.41,0,0,1-.64-.47,14.75,14.75,0,0,1-1.29-1.26,14.34,14.34,0,0,1-1.2-1.51,7.93,7.93,0,0,1-.51-.79,6.55,6.55,0,0,1,.63.47,13.71,13.71,0,0,1,1.29,1.27,14.93,14.93,0,0,1,1.22,1.5C105.15,515.3,105.35,515.65,105.35,515.65Z"/><path class="cls-7" d="M133.53,515.65s.2-.35.52-.8.76-1,1.21-1.53a13.87,13.87,0,0,1,1.31-1.28,6.54,6.54,0,0,1,.64-.48s-.19.34-.51.8a14.49,14.49,0,0,1-1.22,1.52,14.14,14.14,0,0,1-1.3,1.29A5.42,5.42,0,0,1,133.53,515.65Z"/><path class="cls-8" d="M106.57,511.83h21.24s-1.38,1.42-5.21,1.29S109,513.87,106.57,511.83Z"/><path class="cls-6" d="M675.49,526.5v0Z"/><path class="cls-7" d="M676.39,515.65a5.41,5.41,0,0,1-.64-.47,14.75,14.75,0,0,1-1.29-1.26,14.34,14.34,0,0,1-1.2-1.51,7.93,7.93,0,0,1-.51-.79,6.55,6.55,0,0,1,.63.47,16.57,16.57,0,0,1,1.3,1.27,16.26,16.26,0,0,1,1.21,1.5A8.91,8.91,0,0,1,676.39,515.65Z"/><path class="cls-7" d="M704.57,515.65s.2-.35.52-.8a18.59,18.59,0,0,1,1.21-1.53,13.87,13.87,0,0,1,1.31-1.28,5.89,5.89,0,0,1,.65-.48s-.19.34-.51.8-.77,1-1.22,1.52a15.47,15.47,0,0,1-1.31,1.29A5.42,5.42,0,0,1,704.57,515.65Z"/><path class="cls-8" d="M677.62,511.83h21.24s-1.38,1.42-5.22,1.29S680,513.87,677.62,511.83Z"/><path class="cls-6" d="M729.06,535.8v0Z"/><path class="cls-7" d="M730.3,518.19a7.49,7.49,0,0,1-.88-.77,20.18,20.18,0,0,1-1.79-2,27.93,27.93,0,0,1-1.66-2.44c-.44-.72-.7-1.27-.7-1.27a9.09,9.09,0,0,1,.87.75,20.23,20.23,0,0,1,1.8,2.05c.62.82,1.22,1.72,1.66,2.44S730.3,518.19,730.3,518.19Z"/><path class="cls-7" d="M769.25,518.2a14.31,14.31,0,0,1,.7-1.3,27.89,27.89,0,0,1,1.68-2.47,22.5,22.5,0,0,1,1.82-2.09,7.13,7.13,0,0,1,.88-.78s-.27.57-.71,1.31a28.68,28.68,0,0,1-1.68,2.47,23.88,23.88,0,0,1-1.81,2.08A7.13,7.13,0,0,1,769.25,518.2Z"/><path class="cls-8" d="M732,512h29.35s-1.9,2.33-7.2,2.11S735.32,515.32,732,512Z"/><rect class="cls-6" x="2.86" y="535.16" width="803.37" height="14.84"/><rect class="cls-9" x="1.13" y="516.1" width="803.9" height="20.13"/><path class="cls-10" d="M805,537.3H1.13A1.1,1.1,0,0,1,0,536.23V516.1A1.1,1.1,0,0,1,1.13,515H805a1.1,1.1,0,0,1,1.12,1.07v20.13A1.1,1.1,0,0,1,805,537.3ZM2.25,535.15H803.9v-18H2.25Z"/><polygon class="cls-11" points="746.84 439.93 61.55 439.93 3.25 516.1 806.55 516.1 746.84 439.93"/><g class="cls-12"><path class="cls-13" d="M806.32,516.1l-59.48-76.17H653.36C581.84,462.34,400,503,14.48,501.43L3.25,516.1Z"/></g><path class="cls-14" d="M61,439.93H480.67s-184.44,42.28-451.4,43.25Z"/><path class="cls-15" d="M802,518.78S275.86,529.45,2.15,529.53v9.3H805.91V518.78Z"/><rect class="cls-16" x="61" y="28.65" width="683.31" height="411.28"/></g></g></g></svg>