<svg xmlns="http://www.w3.org/2000/svg" xmlns:xlink="http://www.w3.org/1999/xlink" viewBox="0 0 17.88 64.23"><defs><style>.cls-1{fill:url(#linear-gradient);}.cls-2{fill:url(#linear-gradient-2);}.cls-3{fill:url(#linear-gradient-3);}</style><linearGradient id="linear-gradient" x1="20.76" y1="55.48" x2="33.04" y2="55.48" gradientTransform="matrix(1, 0.01, -0.04, 3.79, -15.81, -176.05)" gradientUnits="userSpaceOnUse"><stop offset="0" stop-color="#c4c4c4"/><stop offset="0.05" stop-color="#d2d2d2"/><stop offset="0.15" stop-color="#ebebeb"/><stop offset="0.25" stop-color="#fafafa"/><stop offset="0.33" stop-color="#fff"/><stop offset="0.47" stop-color="#d0d0d0"/><stop offset="0.6" stop-color="#ababab"/><stop offset="0.71" stop-color="#949494"/><stop offset="0.78" stop-color="#8c8c8c"/><stop offset="0.9" stop-color="#b0b0b0"/></linearGradient><linearGradient id="linear-gradient-2" x1="19.52" y1="44.84" x2="34.54" y2="44.84" gradientTransform="translate(-17.23 -43.29) rotate(0.61)" gradientUnits="userSpaceOnUse"><stop offset="0" stop-color="#843459"/><stop offset="0.04" stop-color="#95446d"/><stop offset="0.12" stop-color="#b15f90"/><stop offset="0.2" stop-color="#c672a9"/><stop offset="0.27" stop-color="#d37eb8"/><stop offset="0.33" stop-color="#d782bd"/><stop offset="0.45" stop-color="#b36596"/><stop offset="0.59" stop-color="#904971"/><stop offset="0.71" stop-color="#7b385a"/><stop offset="0.78" stop-color="#733252"/><stop offset="0.9" stop-color="#ae467b"/></linearGradient><linearGradient id="linear-gradient-3" x1="17.71" y1="47.27" x2="35.63" y2="47.27" xlink:href="#linear-gradient-2"/></defs><title>pipette buttonAsset 4</title><g id="Layer_2" data-name="Layer 2"><g id="Layer_1-2" data-name="Layer 1"><polygon class="cls-1" points="14.67 64.23 2.59 63.53 3.03 4.56 15.11 5.26 14.67 64.23"/><path class="cls-2" d="M16.83,2c0,1-3.36,1.76-7.5,1.66s-7.51-1-7.51-2S5.17-.08,9.32,0,16.83,1,16.83,2Z"/><path class="cls-3" d="M17.88,6.55a.77.77,0,0,1-.78.76L.79,6.92A.8.8,0,0,1,0,6.13V2a.76.76,0,0,1,.78-.76l16.31.37a.81.81,0,0,1,.78.81Z"/></g></g></svg>