<svg xmlns="http://www.w3.org/2000/svg" viewBox="0 0 36.44 16.9"><defs><style>.cls-1{fill:#ef4538;}.cls-2{fill:#ce3932;}.cls-3{fill:#fc675b;}</style></defs><title>bottle capAsset 13</title><g id="Layer_2" data-name="Layer 2"><g id="Layer_1-2" data-name="Layer 1"><path class="cls-1" d="M17.53,12H0S4.65,0,18,0A19.19,19.19,0,0,1,36.44,12Z"/><rect class="cls-2" x="4.38" y="12.04" width="27.68" height="4.86"/><path class="cls-3" d="M7.5,5.84a4.63,4.63,0,0,0-.89,1.63A2.07,2.07,0,0,0,6.9,9.25a3.14,3.14,0,0,0,2.19.9c1.71.22,3.73.23,4.84-1.09a10,10,0,0,0,1.16-2.57,6.58,6.58,0,0,1,1.62-2.25A3.26,3.26,0,0,0,17.89,2.8a1.3,1.3,0,0,0-.45-1.28c-1.2-.94-4.09.21-5.27.73A12.1,12.1,0,0,0,7.5,5.84Z"/></g></g></svg>